# xmcd
# 
# Track frame offsets:
#     150
#     8793
#     20568
#     40143
#     63543
#     80268
#     91663
#     111838
#     122340
#     133963
# 
# Disc length: 2436
# 
# Revision: 2
# Processed by: cddbd v1.5.2PL0 Copyright (c) Steve Scherf et al.
# Submitted via: fre:ac v1.0.31
# 
DISCID=7709820a
DTITLE=Columbia Blues - Charley Musselwhite Stone Blues
DYEAR=0
DGENRE=Blues
TTITLE0=My Buddy Buddy Friends
TTITLE1=Everything's Gonna be Allright
TTITLE2=My Baby's Sweeter
TTITLE3=Clay's Tune
TTITLE4=Gone and Left Me
TTITLE5=Cry for Me Baby
TTITLE6=Hey Baby
TTITLE7=Juke
TTITLE8=She Belongs to Me
TTITLE9=Bag Gloom Brews
EXTD=Produced by Barry Goldberg.\nRecorded at Paramount Studios, Los Angeles 1968.
EXTT0=
EXTT1=
EXTT2=
EXTT3=
EXTT4=
EXTT5=
EXTT6=
EXTT7=
EXTT8=
EXTT9=
PLAYORDER=
